<svg width="720" height="240" viewBox="0 0 720 240" fill="none" xmlns="http://www.w3.org/2000/svg">
<g clip-path="url(#clip0_2092_142)">
<mask id="mask0_2092_142" style="mask-type:luminance" maskUnits="userSpaceOnUse" x="0" y="63" width="473" height="140">
<path d="M321.036 86.5059L302.865 104.807L307.878 86.3754H275.375L253.393 168.612H285.687L301.377 110.185C303.858 109.167 306.86 108.175 311.194 108.175C313.674 108.175 317.511 108.488 322.002 110.315C327.484 112.326 330.33 114.806 332.653 116.816L340.616 86.8453C338.632 86.0099 335.812 84.8612 330.956 84.8612C326.623 84.8612 323.62 85.6966 321.01 86.5059M104.088 148.144L114.74 108.645C118.551 105.486 122.232 104.807 124.399 104.807C127.871 104.807 130.717 106.504 132.362 108.984C133.667 110.994 134.189 113.97 134.189 116.973C134.189 123.813 129.046 149.423 111.215 149.423C107.717 149.423 105.237 148.614 104.062 148.118M133.067 86.1665L115.94 104.311L120.744 86.1665H89.1287L57.8267 202.916H89.4421L98.4489 169.604C103.592 170.779 107.926 171.092 111.946 171.092C154.552 171.092 166.875 130.966 166.875 113.161C166.875 95.3561 156.902 84.1824 142.596 84.1824C137.922 84.1824 135.416 85.2006 133.093 86.1926M25.7936 90.3436C18.6142 95.33 13.9672 103.658 13.9672 112.978C13.9672 124.648 21.4598 129.138 29.2919 133.603C37.2806 137.936 39.7868 139.451 39.7868 143.262C39.7868 148.118 35.427 150.259 30.5972 150.259C22.2952 150.259 13.445 144.776 6.13512 140.077L4.15102 147.309L3.08063 151.329L0 162.712C10.1556 167.907 23.2873 170.883 33.2862 170.883C55.4509 170.883 70.7496 158.221 70.7496 141.905C70.7496 129.765 62.2648 124.935 53.5973 120.105C47.7755 116.947 44.9299 115.276 44.9299 111.464C44.9299 106.634 49.4464 104.467 54.9549 104.467C65.2671 104.467 72.7598 110.785 75.0833 112.796L80.9312 90.9702C71.6111 86.1665 61.2728 83.843 50.7778 83.843C41.1183 83.843 32.2942 85.8271 25.7936 90.3436ZM202.145 146.63C199.822 143.967 199.3 140.286 199.3 136.788C199.3 128.303 203.973 104.807 218.097 104.807C222.117 104.807 228.931 106.843 228.931 118.487C228.931 125.979 224.414 150.128 210.108 150.128C206.792 150.128 203.79 148.614 202.119 146.63M167.841 133.159C167.841 157.647 185.489 170.935 210.63 170.935C247.467 170.935 260.572 141.644 260.572 122.638C260.572 101.335 245.091 83.8691 218.097 83.8691C186.298 83.8691 167.841 108.645 167.841 133.159ZM358.473 77.0291L355.993 86.3754L337.64 109.663H349.806L341.634 139.32C341.138 141.644 340.146 146.317 340.146 149.449C340.146 161.459 349.492 171.118 365.104 171.118C370.43 171.118 374.92 169.969 378.784 168.977L395.023 151.408L391.942 162.79C402.071 167.985 415.229 170.962 425.202 170.962C447.367 170.962 462.692 158.3 462.692 141.983C462.692 129.843 454.207 125.014 445.539 120.184C439.691 117.025 436.872 115.354 436.872 111.542C436.872 106.713 441.388 104.546 446.871 104.546C457.183 104.546 464.702 110.864 466.999 112.874L472.847 91.0485C463.527 86.2448 453.189 83.9213 442.694 83.9213C433.034 83.9213 424.21 85.9055 417.736 90.4219C410.556 95.4084 405.909 103.736 405.909 113.057C405.909 124.726 413.402 129.217 421.234 133.681C429.249 138.015 431.703 139.529 431.703 143.341C431.703 148.196 427.369 150.337 422.565 150.337C414.237 150.337 405.387 144.855 398.077 140.155L396.093 147.387C395.31 147.544 394.422 147.674 393.535 147.857C393.3 147.909 393.091 147.935 392.856 147.961C392.49 148.014 392.125 148.092 391.785 148.118C391.446 148.17 391.133 148.222 390.767 148.275C390.48 148.301 390.167 148.353 389.88 148.379C389.305 148.457 388.757 148.51 388.156 148.562C387.974 148.562 387.817 148.614 387.608 148.614C387.164 148.666 386.747 148.692 386.381 148.719C386.198 148.719 386.042 148.719 385.859 148.745C385.337 148.771 384.841 148.797 384.397 148.797C378.079 148.797 373.746 146.291 373.746 140.939C373.746 138.302 374.581 134.96 375.416 131.958L381.551 109.637H399.043L405.23 86.3493H387.739L394.083 63.0098L358.447 77.003L358.473 77.0291Z" fill="white"/>
</mask>
<g mask="url(#mask0_2092_142)">
<path d="M472.873 63.0371H0V202.918H472.873V63.0371Z" fill="url(#paint0_linear_2092_142)"/>
</g>
<mask id="mask1_2092_142" style="mask-type:luminance" maskUnits="userSpaceOnUse" x="459" y="48" width="107" height="126">
<path d="M499.45 147.806L510.598 106.009C512.138 105.461 515.219 104.626 518.926 104.626C537.801 104.626 528.664 131.777 524.774 138.982C523.077 142.167 520.832 145.326 518.273 147.467C515.14 150.078 511.172 151.879 507.491 151.879C505.167 151.879 501.695 151.148 499.45 147.833M492.793 48.0261L459.507 171.59H493.002L498.223 152.375L506.055 171.59C507.961 172.634 510.049 173.704 514.931 173.704C530.126 173.704 546.73 162.426 557.146 143.003C567.302 124.154 577.092 81.6778 531.979 81.6778C527.75 81.6778 522.946 82.0172 516.863 83.2703L526.288 48H492.819L492.793 48.0261Z" fill="white"/>
</mask>
<g mask="url(#mask1_2092_142)">
<path d="M577.092 48.0273H459.507V173.732H577.092V48.0273Z" fill="url(#paint1_linear_2092_142)"/>
</g>
<mask id="mask2_2092_142" style="mask-type:luminance" maskUnits="userSpaceOnUse" x="566" y="81" width="85" height="92">
<path d="M601.841 113.447C605.679 106.972 610.221 103.787 615.625 103.787C618.262 103.787 620.168 104.544 621.395 106.085C622.7 107.703 623.118 109.87 622.753 112.794C622.726 113.003 622.7 113.238 622.648 113.447H601.789H601.841ZM584.689 95.4853C574.82 104.701 568.894 116.031 567.119 129.163C565.37 142.06 567.85 152.581 574.455 160.413C581.086 168.297 590.876 172.292 603.564 172.318C611.866 172.318 621.63 170.281 632.569 166.235L633.744 165.791L642.985 138.405L637.451 140.65C624.136 146.08 614.346 148.848 608.263 148.848C603.329 148.848 599.779 147.333 597.455 144.201C595.393 141.459 594.74 137.726 595.419 133.053H646.484L647.084 131.304C648.52 127.153 649.512 123.132 650.034 119.373C651.548 108.225 649.408 99.0619 643.664 92.1175C637.895 85.1208 629.384 81.5703 618.341 81.5703C605.914 81.5703 594.609 86.2434 584.689 95.4853Z" fill="white"/>
</mask>
<g mask="url(#mask2_2092_142)">
<path d="M651.523 81.5703H565.344V172.318H651.523V81.5703Z" fill="url(#paint2_linear_2092_142)"/>
</g>
<mask id="mask3_2092_142" style="mask-type:luminance" maskUnits="userSpaceOnUse" x="652" y="63" width="68" height="109">
<path d="M673.243 77.0291L670.736 86.3754L652.409 109.663H664.575L656.404 139.32C655.934 141.644 654.942 146.317 654.942 149.449C654.942 161.459 664.262 171.118 679.9 171.118C685.252 171.118 689.742 169.969 693.554 168.977L714.23 146.708L710.889 147.387C710.106 147.544 709.218 147.674 708.304 147.857C708.069 147.909 707.86 147.935 707.625 147.961C707.286 148.014 706.894 148.092 706.555 148.118C706.216 148.17 705.876 148.222 705.537 148.275C705.25 148.301 704.963 148.353 704.675 148.379C704.101 148.457 703.527 148.51 702.978 148.562C702.796 148.562 702.613 148.614 702.404 148.614C701.986 148.666 701.569 148.692 701.151 148.719C700.994 148.719 700.838 148.719 700.655 148.745C700.133 148.771 699.611 148.797 699.193 148.797C692.875 148.797 688.541 146.291 688.541 140.939C688.541 138.302 689.377 134.96 690.186 131.958L696.347 109.637H713.839L720 86.3493H702.508L708.852 63.0098L673.217 77.003L673.243 77.0291Z" fill="white"/>
</mask>
<g mask="url(#mask3_2092_142)">
<path d="M720.052 63.0371H652.41V171.093H720.052V63.0371Z" fill="url(#paint3_linear_2092_142)"/>
</g>
</g>
<defs>
<linearGradient id="paint0_linear_2092_142" x1="232.172" y1="70.9172" x2="232.172" y2="190.951" gradientUnits="userSpaceOnUse">
<stop stop-color="#31A4DC"/>
<stop offset="0.09" stop-color="#2C9BD5"/>
<stop offset="0.7" stop-color="#0D69AF"/>
<stop offset="1" stop-color="#0256A0"/>
</linearGradient>
<linearGradient id="paint1_linear_2092_142" x1="510.09" y1="170.781" x2="510.09" y2="48.7356" gradientUnits="userSpaceOnUse">
<stop stop-color="#F2A71E"/>
<stop offset="0.29" stop-color="#F2A71E"/>
<stop offset="0.44" stop-color="#F3B417"/>
<stop offset="0.71" stop-color="#F7D708"/>
<stop offset="1" stop-color="#F7D708"/>
</linearGradient>
<linearGradient id="paint2_linear_2092_142" x1="604.094" y1="171.403" x2="604.094" y2="49.3579" gradientUnits="userSpaceOnUse">
<stop stop-color="#F2A71E"/>
<stop offset="0.29" stop-color="#F2A71E"/>
<stop offset="0.44" stop-color="#F3B417"/>
<stop offset="0.71" stop-color="#F7D708"/>
<stop offset="1" stop-color="#F7D708"/>
</linearGradient>
<linearGradient id="paint3_linear_2092_142" x1="679.78" y1="171.345" x2="679.78" y2="48.1596" gradientUnits="userSpaceOnUse">
<stop stop-color="#F2A71E"/>
<stop offset="0.29" stop-color="#F2A71E"/>
<stop offset="0.44" stop-color="#F3B417"/>
<stop offset="0.71" stop-color="#F7D708"/>
<stop offset="1" stop-color="#F7D708"/>
</linearGradient>
<clipPath id="clip0_2092_142">
<rect width="720" height="240" fill="white"/>
</clipPath>
</defs>
</svg>
