<?xml version="1.0" encoding="UTF-8"?>
<svg id="Layer_1" data-name="Layer 1" xmlns="http://www.w3.org/2000/svg" viewBox="0 0 300 300">
  <defs>
    <style>
      .cls-1 {
        fill: #005ae0;
      }
    </style>
  </defs>
  <path class="cls-1" d="M225.05,71c7.78,8.82,15.41,17.81,23.41,26.45,5.1-1.15,8.3-2.89,13.74-1.57,20.83,5.08,18.11,36.96-4.05,36.65l-16.44,61.02c12.54,7.26,12.4,27.05-1.05,33.01-1.97.87-4,.79-5.56,1.51-2.4,1.1-1.1,3.5-1.49,5.58-.23,1.23-.91,2.32-1.09,3.41-.97,5.92-1.09,12.04-2.54,17.89,10.33,4.91,15.42,16.14,8.94,26.43-6.36,10.11-22.19,10.97-29.39,1.5-8.45-11.13-1.54-27.58,12.5-28.34l4.43-26.14-.51-1.12c-8.63-2.72-15.05-12.44-12.22-21.54l-46.62-15.34c-9.16,15.29-32.34,12.25-35.05-5.84l-63.97-1.75c-2.91,5.62-5.7,11.56-12.05,14.06-23.2,9.12-37.87-23.94-15.18-34.59l-5.83-37.53c-8.96,1.09-18.8-7.02-19.86-15.81-2.27-18.87,17.21-28.19,32.06-17.91l44.26-28.71c-.4-6.92-.99-12.17,3.62-17.91,9.35-11.64,25.61-7.99,32.13,4.37l41.06-11.52c1.25-.77,1.66-6.24,2.51-8.41,1.5-3.83,4.75-7.65,8.38-9.61,19-10.28,38.56,12.13,25.63,29.38,6.83,7.37,13.56,14.88,20.21,22.41ZM180.29,54.07c-1.87-.06-3.52-1.33-4.83-2.57-4.94-4.69-1.14-7.6-10.07-5.62-12.45,2.76-24.53,7.77-37.12,10.12l-2.55,10.48,32.29,26.67,11.45-3.48,10.83-35.6ZM204.48,59.43l-5.31-5.28-11.49,3.1-10.31,34.71c5.63,3.33,9.43,7.79,11.03,14.19l51.6,2.45,2.37-6.34-37.89-42.84ZM51.8,97.19c-.33.47.88,4.11,2.19,3.78,28.54,1.52,56.96,2.35,85.53,3.18,3.32.1,7.1,1.51,10.62.39l1.88-5.2-31.5-26.99c-1.94-.9-6.17,1.77-8.83,2.09-5.99.73-11.24-2.22-15.89-5.63l-43.99,28.38ZM48.63,160.65c4.85-.02,9.22,2.29,12.97,5.15l89.13-51.66c-.85-1.15-1.44-1.45-2.85-1.64-4.36-.58-10.21.3-14.84.06-16.23-.85-32.61-1.95-48.83-2.59-10.38-.41-20.77-.29-31.14-1.26-.41,6.92-5.77,11.27-10.82,15.15l6.39,36.8ZM238.71,116.47l-49.72-2.69c-1.62.19-2.74,4.42-3.65,6.04-.8,1.4-2.6,2.29-2.97,4.06l43.88,68.16,7.99-1.15,15.93-58.76c-5.95-4.1-10.23-8.13-11.45-15.65ZM153.64,121.69l-87.47,50.61c-1.33,2.73,6.55,3.15,8.37,3.26,17.38,1.08,36.52.58,54.05.58,1.09,0,2.07.44,3.13.57,2.78-4.11,3.83-7.51,8.15-10.44,11.5-7.8,25.56-1.53,28.72,11.66.44,1.83-.56,4.17,1.17,5.26,14.17,4.32,28,10.16,42.19,14.38,2.92.87,5.06,2.09,6.83-1.24l-43.58-68.73c-8.07,2.71-16.02.47-21.55-5.91Z"/>
</svg>